<svg id="Layer_1" data-name="Layer 1" xmlns="http://www.w3.org/2000/svg" viewBox="0 0 61.44 61.44"><defs><style>.cls-1{fill:#7b439a;}.cls-2{fill:#fff;fill-rule:evenodd;}</style></defs><title>ig</title><rect class="cls-1" width="61.44" height="61.44"/><path class="cls-2" d="M30.25,15.27c-3.83,0-4.37,0-6,.09a11.21,11.21,0,0,0-3.73.71,7.84,7.84,0,0,0-4.49,4.49,11.21,11.21,0,0,0-.71,3.73c-.08,1.64-.09,2.16-.09,6.34s0,4.69.09,6.33a11.21,11.21,0,0,0,.71,3.73,7.84,7.84,0,0,0,4.49,4.49,11.21,11.21,0,0,0,3.73.71c1.64.08,2.16.1,6.34.1s4.69,0,6.33-.1a11.21,11.21,0,0,0,3.73-.71,7.84,7.84,0,0,0,4.49-4.49A11.21,11.21,0,0,0,45.89,37C46,35.37,46,34.83,46,31v-.76c0-3.83,0-4.37-.1-6a11.21,11.21,0,0,0-.71-3.73,7.84,7.84,0,0,0-4.49-4.49A11.21,11.21,0,0,0,37,15.36c-1.59-.07-2.13-.09-5.95-.09Zm10.42,7.16a1.85,1.85,0,1,1-1.84-1.85,1.85,1.85,0,0,1,1.84,1.85Zm-10,13.32a5.12,5.12,0,1,1,5.12-5.12,5.12,5.12,0,0,1-5.12,5.12Zm0-13a7.89,7.89,0,1,1-7.89,7.89,7.88,7.88,0,0,1,7.89-7.89Zm0-4.71c4.1,0,4.58,0,6.2.09a8.51,8.51,0,0,1,2.85.53,5.08,5.08,0,0,1,2.92,2.92,8.51,8.51,0,0,1,.53,2.85c.07,1.62.09,2.1.09,6.21s0,4.58-.09,6.2a8.51,8.51,0,0,1-.53,2.85,5.08,5.08,0,0,1-2.92,2.92,8.51,8.51,0,0,1-2.85.53c-1.62.07-2.1.09-6.2.09s-4.59,0-6.21-.09a8.51,8.51,0,0,1-2.85-.53,5.08,5.08,0,0,1-2.92-2.92,8.51,8.51,0,0,1-.53-2.85c-.07-1.62-.09-2.1-.09-6.2s0-4.59.09-6.21a8.51,8.51,0,0,1,.53-2.85,5.08,5.08,0,0,1,2.92-2.92,8.51,8.51,0,0,1,2.85-.53C26,18.05,26.52,18,30.63,18Z" transform="translate(0.09 0.09)"/></svg>