<svg id="Layer_1" data-name="Layer 1" xmlns="http://www.w3.org/2000/svg" viewBox="0 0 61.44 61.44"><defs><style>.cls-1{fill:#0db14b;}.cls-2{fill:#fff;fill-rule:evenodd;}</style></defs><title>whatsapp</title><rect class="cls-1" width="61.44" height="61.44"/><path class="cls-2" d="M18.2,30.27a12.6,12.6,0,0,1,2.84-8c.27-.33.49-.52.75-.85l.79-.74a12.85,12.85,0,0,1,7.82-3A12.06,12.06,0,0,1,34,18a14.66,14.66,0,0,1,2.26.81L38.21,20a10,10,0,0,1,.87.67c.16.16.24.19.4.34l.4.4A12.52,12.52,0,0,1,35,42.09a12.78,12.78,0,0,1-10.3-1l-.37-.22c-.47-.29-.2-.28-1.36.07-.63.19-1.28.4-1.91.62l-2,.59c.23-.47,1.54-4.53,1.54-4.6l-.91-1.5c-.17-.29-.23-.5-.38-.81a11.48,11.48,0,0,1-.88-2.79,13.37,13.37,0,0,1-.23-2.23Zm5.33-3.74a4.83,4.83,0,0,0,.6,2.74,11.54,11.54,0,0,0,1,1.64l.55.77a17.16,17.16,0,0,0,1.9,2.1,12.51,12.51,0,0,0,5,3c1.67.6,3.16.86,4.69-.26a2.55,2.55,0,0,0,1.18-2,2.33,2.33,0,0,0,0-.62c-.07-.48-.75-.6-1.44-1s-2.17-1.28-2.62-.8l-1.18,1.49a.56.56,0,0,1-.75.2,10.45,10.45,0,0,1-3.88-2.67,13.31,13.31,0,0,1-.94-1.26c-.42-.63-.59-.78,0-1.37a2.7,2.7,0,0,0,.85-1.41,1.29,1.29,0,0,0-.2-.54c-.08-.17-.14-.34-.21-.52l-.67-1.6c-.48-1.18-.5-.95-1.25-1-.91-.07-1.23,0-1.93.94a3.85,3.85,0,0,0-.81,2.19ZM15.8,29.6A13.88,13.88,0,0,0,16.57,35a14.77,14.77,0,0,0,1.17,2.57c.26.45.2.36,0,.9s-2.46,7.07-2.49,7.44c.33,0,5.72-1.76,6.65-2.07,2.73-.92.95-.42,4.53.68,10.59,3.24,20.73-5.67,19.42-16-.07-.58-.15-1.11-.26-1.6a14.91,14.91,0,0,0-3.53-6.73,6.57,6.57,0,0,1-.44-.5l-2-1.7a17.38,17.38,0,0,0-2.37-1.37,15,15,0,0,0-4.34-1.26,15.25,15.25,0,0,0-5,.17,11.6,11.6,0,0,0-1.49.38A14.83,14.83,0,0,0,22,18.08l-1,.84a5.15,5.15,0,0,0-.5.43,14.26,14.26,0,0,0-3.17,4.3A14.43,14.43,0,0,0,15.8,29.6Z" transform="translate(0.09 0.14)"/></svg>