<svg id="Layer_1" data-name="Layer 1" xmlns="http://www.w3.org/2000/svg" xmlns:xlink="http://www.w3.org/1999/xlink" viewBox="0 0 815.26 803.56"><defs><style>.cls-1,.cls-2,.cls-20,.cls-22,.cls-23,.cls-31,.cls-4{fill:none;}.cls-2{clip-rule:evenodd;}.cls-3{clip-path:url(#clip-path);}.cls-4{stroke:#f08e4b;stroke-width:8px;}.cls-16,.cls-17,.cls-18,.cls-20,.cls-21,.cls-22,.cls-31,.cls-32,.cls-33,.cls-4,.cls-5{stroke-linecap:round;}.cls-14,.cls-17,.cls-19,.cls-26,.cls-5,.cls-8,.cls-9{fill:#fff;}.cls-11,.cls-13,.cls-16,.cls-17,.cls-18,.cls-20,.cls-21,.cls-22,.cls-23,.cls-24,.cls-25,.cls-26,.cls-27,.cls-31,.cls-32,.cls-33,.cls-5,.cls-6,.cls-8,.cls-9{stroke:#003548;}.cls-16,.cls-17,.cls-18,.cls-20,.cls-21,.cls-25,.cls-26,.cls-27,.cls-31,.cls-32,.cls-33,.cls-5{stroke-linejoin:round;}.cls-11,.cls-13,.cls-21,.cls-25,.cls-26,.cls-27,.cls-31,.cls-33,.cls-5,.cls-6,.cls-8,.cls-9{stroke-width:2px;}.cls-18,.cls-6{fill:#893a1d;}.cls-11,.cls-13,.cls-19,.cls-22,.cls-23,.cls-24,.cls-6,.cls-8,.cls-9{stroke-miterlimit:10;}.cls-7{clip-path:url(#clip-path-2);}.cls-19,.cls-26,.cls-27,.cls-30,.cls-9{fill-rule:evenodd;}.cls-10{clip-path:url(#clip-path-3);}.cls-11{fill:#231f20;}.cls-12{clip-path:url(#clip-path-4);}.cls-13,.cls-16,.cls-25,.cls-27,.cls-28,.cls-30{fill:#f08e4b;}.cls-15,.cls-21,.cls-32{fill:#003548;}.cls-19{stroke:#231f20;}.cls-24{fill:#ccecf9;}.cls-29{clip-path:url(#clip-path-5);}.cls-33{fill:#ee7f4f;}</style><clipPath id="clip-path" transform="translate(-106.23 -113.04)"><rect class="cls-1" x="529.5" y="542.76" width="238.48" height="238.48"/></clipPath><clipPath id="clip-path-2" transform="translate(-106.23 -113.04)"><polyline class="cls-2" points="164.9 686.56 218.8 743.57 201.37 663.3"/></clipPath><clipPath id="clip-path-3" transform="translate(-106.23 -113.04)"><polyline class="cls-2" points="304.63 697.67 218.8 743.57 201.86 665.55"/></clipPath><clipPath id="clip-path-4" transform="translate(-106.23 -113.04)"><polygon class="cls-2" points="218.8 743.57 142.41 662.16 146.16 833.55 218.8 743.57"/></clipPath><clipPath id="clip-path-5" transform="translate(-106.23 -113.04)"><rect class="cls-1" x="122.83" y="114.04" width="206.54" height="222.96" rx="8.15" ry="8.15"/></clipPath></defs><title>house</title><g class="cls-3"><line class="cls-4" x1="544.17" y1="303.07" x2="790.76" y2="549.65"/><line class="cls-4" x1="528.55" y1="318.69" x2="775.14" y2="565.27"/><line class="cls-4" x1="512.94" y1="334.3" x2="759.52" y2="580.89"/><line class="cls-4" x1="497.32" y1="349.92" x2="743.9" y2="596.51"/><line class="cls-4" x1="481.7" y1="365.54" x2="728.28" y2="612.13"/><line class="cls-4" x1="466.08" y1="381.16" x2="712.66" y2="627.75"/><line class="cls-4" x1="450.46" y1="396.78" x2="697.04" y2="643.37"/><line class="cls-4" x1="434.84" y1="412.4" x2="681.42" y2="658.98"/><line class="cls-4" x1="419.22" y1="428.02" x2="665.8" y2="674.6"/><line class="cls-4" x1="403.6" y1="443.64" x2="650.18" y2="690.22"/><line class="cls-4" x1="387.98" y1="459.26" x2="634.57" y2="705.84"/><line class="cls-4" x1="372.36" y1="474.88" x2="618.95" y2="721.46"/><line class="cls-4" x1="356.74" y1="490.5" x2="603.33" y2="737.08"/><line class="cls-4" x1="341.12" y1="506.12" x2="587.71" y2="752.7"/><line class="cls-4" x1="325.5" y1="521.74" x2="572.09" y2="768.32"/><line class="cls-4" x1="309.89" y1="537.35" x2="556.47" y2="783.94"/><line class="cls-4" x1="294.27" y1="552.97" x2="540.85" y2="799.56"/></g><rect class="cls-5" x="1" y="528.61" width="216.95" height="198.19" rx="11" ry="11"/><circle class="cls-6" cx="112.57" cy="630.48" r="65.95"/><g class="cls-7"><circle class="cls-8" cx="112.57" cy="630.53" r="65.9"/></g><path class="cls-9" d="M218.8,743.57" transform="translate(-106.23 -113.04)"/><g class="cls-10"><circle class="cls-11" cx="112.57" cy="630.48" r="65.95"/></g><g class="cls-12"><circle class="cls-13" cx="112.57" cy="630.48" r="65.95"/></g><circle class="cls-14" cx="112.42" cy="630.48" r="24.79"/><path class="cls-15" d="M133.75,630.34H129V612.13l-5.63,1.74v-3.81l9.85-3.52h.5Z" transform="translate(-106.23 -113.04)"/><path class="cls-15" d="M157.64,609.2l-9.19,21.14h-5l9.2-20H140.85v-3.8h16.79Z" transform="translate(-106.23 -113.04)"/><path class="cls-15" d="M160.59,611.14a4.72,4.72,0,0,1,1.42-3.55,5.16,5.16,0,0,1,3.73-1.36,5.25,5.25,0,0,1,3.75,1.34,4.79,4.79,0,0,1,1.42,3.65v1.18a4.62,4.62,0,0,1-1.42,3.54,5.86,5.86,0,0,1-7.47,0,4.77,4.77,0,0,1-1.43-3.63Zm3.14,1.28a2.23,2.23,0,0,0,.56,1.58,1.94,1.94,0,0,0,1.48.6,1.82,1.82,0,0,0,1.45-.61,2.33,2.33,0,0,0,.54-1.62v-1.22a2.32,2.32,0,0,0-.54-1.59,2.09,2.09,0,0,0-2.94,0,2.37,2.37,0,0,0-.55,1.67Zm3,16.14-2.3-1.24L176,608.74l2.3,1.24Zm5.26-4a4.66,4.66,0,0,1,1.43-3.55,5.89,5.89,0,0,1,7.47,0,4.71,4.71,0,0,1,1.43,3.66v1.18a4.68,4.68,0,0,1-1.4,3.53,5.88,5.88,0,0,1-7.51,0,4.71,4.71,0,0,1-1.42-3.59Zm3.13,1.3a2.21,2.21,0,0,0,.59,1.54,1.9,1.9,0,0,0,1.47.64c1.33,0,2-.74,2-2.22v-1.24a2.25,2.25,0,0,0-.55-1.59,2.1,2.1,0,0,0-2.94,0,2.33,2.33,0,0,0-.56,1.64Z" transform="translate(-106.23 -113.04)"/><rect class="cls-5" x="509.25" y="48.56" width="305.01" height="244.65" rx="10.38" ry="10.38"/><rect class="cls-16" x="566.79" y="169.75" width="20.74" height="83.45"/><rect class="cls-17" x="592.54" y="191.75" width="20.74" height="61.45"/><rect class="cls-16" x="618.29" y="131.26" width="20.74" height="121.94"/><rect class="cls-18" x="644.05" y="158.75" width="20.74" height="94.44"/><rect class="cls-16" x="670.19" y="169.75" width="20.74" height="83.45"/><rect class="cls-17" x="695.95" y="191.75" width="20.74" height="61.45"/><rect class="cls-16" x="721.7" y="131.26" width="20.74" height="121.94"/><rect class="cls-18" x="747.45" y="158.75" width="20.74" height="94.44"/><path class="cls-19" d="M734.89,240.35l-5.55-7.58a2.47,2.47,0,0,0-2-1H698.82a2.48,2.48,0,0,1-2.47-2.48V192.15a2.48,2.48,0,0,1,2.47-2.48H771a2.48,2.48,0,0,1,2.47,2.48v37.13a2.48,2.48,0,0,1-2.47,2.48H742.43a2.47,2.47,0,0,0-2,1l-5.55,7.58" transform="translate(-106.23 -113.04)"/><line class="cls-20" x1="600.45" y1="88.3" x2="649.77" y2="88.3"/><line class="cls-20" x1="600.45" y1="95.01" x2="642.32" y2="95.01"/><line class="cls-20" x1="600.45" y1="101.72" x2="632.39" y2="101.72"/><path class="cls-15" d="M863.57,194a4.72,4.72,0,0,1,1.42-3.55,5.15,5.15,0,0,1,3.72-1.36,5.27,5.27,0,0,1,3.76,1.34,4.79,4.79,0,0,1,1.42,3.65v1.18a4.62,4.62,0,0,1-1.42,3.54,5.86,5.86,0,0,1-7.47,0,4.75,4.75,0,0,1-1.43-3.63Zm3.14,1.28a2.18,2.18,0,0,0,.56,1.58,1.93,1.93,0,0,0,1.48.6,1.82,1.82,0,0,0,1.45-.61,2.33,2.33,0,0,0,.54-1.62V194a2.32,2.32,0,0,0-.54-1.59,2.09,2.09,0,0,0-2.94,0,2.37,2.37,0,0,0-.55,1.67Zm3,16.14-2.3-1.24L879,191.63l2.3,1.24Zm5.26-4a4.63,4.63,0,0,1,1.43-3.55,5.89,5.89,0,0,1,7.47,0,4.75,4.75,0,0,1,1.43,3.66v1.18a4.68,4.68,0,0,1-1.4,3.53,5.88,5.88,0,0,1-7.51,0,4.71,4.71,0,0,1-1.42-3.59Zm3.13,1.3a2.21,2.21,0,0,0,.59,1.54,1.9,1.9,0,0,0,1.47.64c1.33,0,2-.74,2-2.22v-1.24a2.25,2.25,0,0,0-.56-1.59,1.9,1.9,0,0,0-1.46-.6,1.94,1.94,0,0,0-1.48.6,2.37,2.37,0,0,0-.55,1.64Z" transform="translate(-106.23 -113.04)"/><rect class="cls-21" x="185.66" y="184.13" width="350.23" height="378.07" rx="13.83" ry="13.83"/><rect class="cls-5" x="172.42" y="170.89" width="350.23" height="378.07" rx="13.83" ry="13.83"/><line class="cls-5" x1="172.42" y1="212.72" x2="522.65" y2="212.72"/><line class="cls-22" x1="492.37" y1="185.76" x2="503.49" y2="196.87"/><line class="cls-22" x1="503.49" y1="185.76" x2="492.37" y2="196.87"/><rect class="cls-23" x="455.27" y="184.21" width="10.8" height="10.8"/><line class="cls-22" x1="402.77" y1="191.31" x2="421.3" y2="191.31"/><rect class="cls-24" x="451.85" y="187.63" width="10.8" height="10.8"/><rect class="cls-25" x="327.09" y="258.07" width="131.43" height="183.62"/><polygon class="cls-26" points="355.31 268.76 469.21 268.76 469.21 452.38 337.78 452.38 337.78 286.3 355.31 268.76"/><polygon class="cls-27" points="355.31 268.76 355.31 286.3 337.78 286.3 355.31 268.76"/><rect class="cls-28" x="468.34" y="514.81" width="89.15" height="4.84" rx="2.14" ry="2.14" transform="translate(919.6 921.41) rotate(-180)"/><rect class="cls-28" x="468.34" y="504.13" width="89.15" height="4.84" rx="2.14" ry="2.14" transform="translate(919.6 900.06) rotate(180)"/><rect class="cls-28" x="468.34" y="493.45" width="89.15" height="4.84" rx="2.14" ry="2.14" transform="translate(919.6 878.71) rotate(-180)"/><rect class="cls-28" x="468.34" y="482.78" width="89.15" height="4.84" rx="2.14" ry="2.14" transform="translate(919.6 857.36) rotate(180)"/><rect class="cls-28" x="468.34" y="472.1" width="89.15" height="4.84" rx="2.14" ry="2.14" transform="translate(919.6 836.01) rotate(180)"/><rect class="cls-28" x="468.34" y="461.43" width="89.15" height="4.84" rx="2.14" ry="2.14" transform="translate(919.6 814.66) rotate(180)"/><rect class="cls-28" x="468.34" y="450.75" width="89.15" height="4.84" rx="2.14" ry="2.14" transform="translate(919.6 793.31) rotate(180)"/><rect class="cls-28" x="468.34" y="440.08" width="89.15" height="4.84" rx="2.14" ry="2.14" transform="translate(919.6 771.96) rotate(180)"/><rect class="cls-28" x="513.77" y="429.4" width="43.72" height="4.84" rx="2.14" ry="2.14" transform="translate(965.03 750.61) rotate(180)"/><rect class="cls-21" x="25.56" y="9.96" width="206.54" height="222.96" rx="8.15" ry="8.15"/><rect class="cls-5" x="16.6" y="1" width="206.54" height="222.96" rx="8.15" ry="8.15"/><g class="cls-29"><path class="cls-30" d="M170.56,337H114.64V262.33s4.33,6.34,20.61,0,29.54-43.24,53.76-42.08,19,17.51,60.53,13.08,46.13-38.45,59.39-43.06,13,17.29,19,20.18,6,12.1,6,12.1V337Z" transform="translate(-106.23 -113.04)"/></g><rect class="cls-31" x="16.6" y="1" width="206.54" height="222.96" rx="8.15" ry="8.15"/><path class="cls-19" d="M187.56,213.46,182,205.88a2.49,2.49,0,0,0-2-1H151.49a2.47,2.47,0,0,1-2.47-2.48V165.26a2.47,2.47,0,0,1,2.47-2.48h72.14a2.48,2.48,0,0,1,2.47,2.48v37.13a2.48,2.48,0,0,1-2.47,2.48H195.1a2.5,2.5,0,0,0-2,1l-5.54,7.58" transform="translate(-106.23 -113.04)"/><line class="cls-20" x1="53.12" y1="61.41" x2="102.43" y2="61.41"/><line class="cls-20" x1="53.12" y1="68.12" x2="94.99" y2="68.12"/><line class="cls-20" x1="53.12" y1="74.83" x2="85.06" y2="74.83"/><circle class="cls-32" cx="81.33" cy="107.19" r="3.73"/><rect class="cls-5" x="226.18" y="378.77" width="195.56" height="117.32"/><rect class="cls-33" x="221.5" y="370.1" width="204.92" height="8.67"/><rect class="cls-33" x="226.18" y="488.2" width="195.56" height="7.89"/><rect class="cls-5" x="338.62" y="399.12" width="54.21" height="56.93"/><rect class="cls-33" x="249.85" y="398.02" width="30.15" height="90.18"/><rect class="cls-5" x="257.81" y="407.38" width="14.25" height="40.41"/><rect class="cls-33" x="280.01" y="398.02" width="30.15" height="90.18"/><rect class="cls-5" x="287.96" y="407.38" width="14.25" height="40.41"/></svg>