<svg id="Layer_1" data-name="Layer 1" xmlns="http://www.w3.org/2000/svg" viewBox="0 0 61.44 61.44"><defs><style>.cls-1{fill:#0072b4;}.cls-2{fill:#fff;fill-rule:evenodd;}</style></defs><title>linkedin</title><rect class="cls-1" width="61.44" height="61.44"/><path class="cls-2" d="M22.22,46H15.88V25.5h6.34V46ZM19,22.82h0A3.78,3.78,0,1,1,22.77,19,3.76,3.76,0,0,1,19,22.82ZM46,46H39.67V35.24c0-3-1.12-4.6-3.45-4.6-2.54,0-3.86,1.71-3.86,4.6V46H26.27V25.5h6.09v2.76a7.14,7.14,0,0,1,6.17-3.38C42.87,24.88,46,27.53,46,33Z" transform="translate(0.09 0.09)"/></svg>