<svg id="Layer_1" data-name="Layer 1" xmlns="http://www.w3.org/2000/svg" xmlns:xlink="http://www.w3.org/1999/xlink" viewBox="0 0 846.67 896.53"><defs><style>.cls-1,.cls-10,.cls-12,.cls-15,.cls-3,.cls-8{fill:none;}.cls-14,.cls-2,.cls-20,.cls-22,.cls-9{fill:#fff;}.cls-10,.cls-13,.cls-14,.cls-15,.cls-16,.cls-17,.cls-2,.cls-22,.cls-23,.cls-24,.cls-25,.cls-3,.cls-6,.cls-7,.cls-8,.cls-9{stroke:#003548;}.cls-10,.cls-15,.cls-16,.cls-2,.cls-22,.cls-23,.cls-3,.cls-6,.cls-9{stroke-miterlimit:10;}.cls-10,.cls-13,.cls-14,.cls-17,.cls-2{stroke-width:2px;}.cls-4,.cls-6{fill:#f08e4b;}.cls-18,.cls-23,.cls-25,.cls-5{fill:#893a1d;}.cls-16,.cls-17,.cls-7{fill:#ee7f4f;}.cls-13,.cls-14,.cls-17,.cls-24,.cls-25,.cls-7,.cls-8{stroke-linejoin:round;}.cls-17,.cls-18,.cls-22,.cls-23,.cls-7{fill-rule:evenodd;}.cls-11{clip-path:url(#clip-path);}.cls-12{stroke:#f08e4b;stroke-width:8px;}.cls-12,.cls-13,.cls-14,.cls-15,.cls-24,.cls-25{stroke-linecap:round;}.cls-13{fill:#003548;}.cls-19{fill:#888;}.cls-21{fill:#9c5789;}.cls-24{fill:#f1f2f2;}</style><clipPath id="clip-path" transform="translate(-120.72 -136.46)"><rect class="cls-1" x="595.91" y="659.15" width="238.48" height="238.48"/></clipPath></defs><title>odoo</title><rect class="cls-2" x="689.84" y="229.71" width="107.3" height="173.39" rx="9.4" ry="9.4"/><line class="cls-3" x1="710.93" y1="335.29" x2="776.06" y2="335.29"/><line class="cls-3" x1="714.16" y1="344.13" x2="772.83" y2="344.13"/><line class="cls-3" x1="719.7" y1="352.97" x2="767.29" y2="352.97"/><path class="cls-4" d="M871.4,414.43H857a2.29,2.29,0,0,0-1.25.37l-8.65,5.6a2.28,2.28,0,0,0-1,1.92V448.2a2.28,2.28,0,0,0,2.29,2.29h31.66a2.29,2.29,0,0,0,2.29-2.29V422.32a2.26,2.26,0,0,0-1.05-1.92l-8.64-5.6A2.31,2.31,0,0,0,871.4,414.43Z" transform="translate(-120.72 -136.46)"/><circle class="cls-5" cx="743.5" cy="270.97" r="9.65"/><rect class="cls-2" x="549.84" y="1" width="107.3" height="173.39" rx="9.4" ry="9.4"/><rect class="cls-2" x="232.89" y="1" width="107.3" height="173.39" rx="9.4" ry="9.4"/><rect class="cls-6" x="244.42" y="14.72" width="84.24" height="68.58" rx="8.31" ry="8.31"/><line class="cls-3" x1="253.98" y1="106.58" x2="319.12" y2="106.58"/><line class="cls-3" x1="257.21" y1="114.27" x2="315.88" y2="114.27"/><line class="cls-3" x1="262.75" y1="121.95" x2="310.34" y2="121.95"/><rect class="cls-2" x="1" y="486.94" width="107.3" height="173.39" rx="9.4" ry="9.4"/><rect class="cls-6" x="12.53" y="500.66" width="84.24" height="68.58" rx="8.31" ry="8.31"/><polygon class="cls-5" points="76.83 553.78 63.35 516.12 52.8 543.09 43.88 530.83 32.48 553.78 76.83 553.78"/><circle class="cls-5" cx="50.65" cy="525.35" r="4.56"/><line class="cls-3" x1="22.08" y1="592.52" x2="87.22" y2="592.52"/><line class="cls-3" x1="25.32" y1="600.21" x2="83.99" y2="600.21"/><line class="cls-3" x1="30.86" y1="607.89" x2="78.45" y2="607.89"/><path class="cls-7" d="M688,164.06h21.24a7.75,7.75,0,0,1,5.25,2.05l8,7.3a4,4,0,0,0,2.7,1.05h35.33a4,4,0,0,1,4,4v45a4,4,0,0,1-4,4H688a4,4,0,0,1-4-4V168.08A4,4,0,0,1,688,164.06Z" transform="translate(-120.72 -136.46)"/><line class="cls-8" x1="563.24" y1="46.84" x2="643.74" y2="46.84"/><line class="cls-3" x1="564.4" y1="114.22" x2="618.62" y2="114.22"/><line class="cls-3" x1="564.4" y1="121.38" x2="606.51" y2="121.38"/><rect class="cls-2" x="1" y="198.52" width="107.3" height="173.39" rx="9.4" ry="9.4"/><rect class="cls-9" x="13.68" y="291.8" width="24.46" height="24.61" rx="2.98" ry="2.98"/><line class="cls-3" x1="43.9" y1="300.21" x2="86.59" y2="300.21"/><line class="cls-3" x1="43.9" y1="307.37" x2="74.49" y2="307.37"/><rect class="cls-9" x="13.68" y="327.38" width="24.46" height="24.61" rx="2.98" ry="2.98"/><line class="cls-3" x1="43.9" y1="335.79" x2="86.59" y2="335.79"/><line class="cls-3" x1="43.9" y1="342.95" x2="74.49" y2="342.95"/><polyline class="cls-10" points="224.34 371.91 156.33 371.91 156.33 289.74 133.26 289.74"/><polyline class="cls-10" points="224.34 520.79 178.79 520.79 178.79 579.02 133.26 579.02"/><line class="cls-10" x1="286.55" y1="196.88" x2="286.55" y2="263.86"/><polyline class="cls-10" points="606.2 196.88 606.2 215.94 512.58 215.94 512.58 263.86"/><line class="cls-10" x1="667.28" y1="324.17" x2="587.81" y2="324.17"/><g class="cls-11"><line class="cls-12" x1="596.09" y1="396.04" x2="842.67" y2="642.63"/><line class="cls-12" x1="580.47" y1="411.66" x2="827.05" y2="658.25"/><line class="cls-12" x1="564.85" y1="427.28" x2="811.43" y2="673.86"/><line class="cls-12" x1="549.23" y1="442.9" x2="795.81" y2="689.48"/><line class="cls-12" x1="533.61" y1="458.52" x2="780.19" y2="705.1"/><line class="cls-12" x1="517.99" y1="474.14" x2="764.57" y2="720.72"/><line class="cls-12" x1="502.37" y1="489.76" x2="748.96" y2="736.34"/><line class="cls-12" x1="486.75" y1="505.38" x2="733.34" y2="751.96"/><line class="cls-12" x1="471.13" y1="521" x2="717.72" y2="767.58"/><line class="cls-12" x1="455.51" y1="536.61" x2="702.1" y2="783.2"/><line class="cls-12" x1="439.89" y1="552.23" x2="686.48" y2="798.82"/><line class="cls-12" x1="424.27" y1="567.85" x2="670.86" y2="814.44"/><line class="cls-12" x1="408.65" y1="583.47" x2="655.24" y2="830.06"/><line class="cls-12" x1="393.04" y1="599.09" x2="639.62" y2="845.68"/><line class="cls-12" x1="377.42" y1="614.71" x2="624" y2="861.3"/><line class="cls-12" x1="361.8" y1="630.33" x2="608.38" y2="876.92"/><line class="cls-12" x1="346.18" y1="645.95" x2="592.76" y2="892.53"/></g><rect class="cls-13" x="237.57" y="277.1" width="350.23" height="378.08" rx="13.83" ry="13.83"/><rect class="cls-14" x="224.33" y="263.86" width="350.23" height="378.08" rx="13.83" ry="13.83"/><line class="cls-14" x1="224.33" y1="305.7" x2="574.57" y2="305.7"/><line class="cls-15" x1="544.28" y1="278.73" x2="555.4" y2="289.85"/><line class="cls-15" x1="555.4" y1="278.73" x2="544.28" y2="289.85"/><rect class="cls-3" x="507.18" y="277.18" width="10.8" height="10.8"/><line class="cls-15" x1="454.68" y1="284.29" x2="473.22" y2="284.29"/><rect class="cls-6" x="503.76" y="280.6" width="10.8" height="10.8"/><rect class="cls-9" x="258.68" y="342.11" width="281.54" height="121.4" rx="9.71" ry="9.71"/><rect class="cls-16" x="267.94" y="496.07" width="43.72" height="43.98" rx="5.33" ry="5.33"/><line class="cls-15" x1="321.95" y1="511.1" x2="398.26" y2="511.1"/><line class="cls-15" x1="321.95" y1="523.9" x2="376.62" y2="523.9"/><rect class="cls-16" x="267.94" y="554.47" width="43.72" height="43.98" rx="5.33" ry="5.33"/><line class="cls-15" x1="321.95" y1="569.5" x2="398.26" y2="569.5"/><line class="cls-15" x1="321.95" y1="582.3" x2="376.62" y2="582.3"/><polygon class="cls-17" points="112.99 292.63 133.26 272.37 133.26 311.23 112.99 292.63"/><polygon class="cls-17" points="112.99 579.86 133.26 559.59 133.26 598.45 112.99 579.86"/><polygon class="cls-17" points="687.55 323.33 667.28 343.6 667.28 304.74 687.55 323.33"/><polygon class="cls-17" points="605.36 176.61 625.63 196.88 586.77 196.88 605.36 176.61"/><polygon class="cls-17" points="285.71 176.61 305.98 196.88 267.12 196.88 285.71 176.61"/><path class="cls-18" d="M374.82,187l16.83,16.83a.86.86,0,0,0,1.47-.61v-4a.86.86,0,0,0-.25-.61l-11.82-11.81a.88.88,0,0,1,0-1.22l11.66-11.66a.83.83,0,0,0,.26-.61v-3.77a.86.86,0,0,0-1.47-.6l-16.69,16.82A.85.85,0,0,0,374.82,187Z" transform="translate(-120.72 -136.46)"/><path class="cls-18" d="M439.72,187l-16.83,16.83a.86.86,0,0,1-1.47-.61v-4a.86.86,0,0,1,.25-.61l11.81-11.81a.86.86,0,0,0,0-1.22l-11.66-11.66a.86.86,0,0,1-.25-.61v-3.77A.86.86,0,0,1,423,169l16.68,16.82A.85.85,0,0,1,439.72,187Z" transform="translate(-120.72 -136.46)"/><path class="cls-18" d="M411.44,166.58,399,204.25a3.13,3.13,0,0,0,4.39,3.77h0a3.1,3.1,0,0,0,1.56-1.81l12.46-37.67a3.13,3.13,0,0,0-4.41-3.76h0A3.09,3.09,0,0,0,411.44,166.58Z" transform="translate(-120.72 -136.46)"/><circle class="cls-19" cx="490.17" cy="412.37" r="30.03"/><path class="cls-20" d="M610.89,566.53a17.71,17.71,0,1,0-17.71-17.71A17.7,17.7,0,0,0,610.89,566.53Z" transform="translate(-120.72 -136.46)"/><circle class="cls-19" cx="426.5" cy="412.37" r="30.03"/><path class="cls-20" d="M547.23,566.53a17.71,17.71,0,1,0-17.71-17.71,17.7,17.7,0,0,0,17.71,17.71Z" transform="translate(-120.72 -136.46)"/><path class="cls-19" d="M514.42,548.58v.24a29.95,29.95,0,1,1-11.9-24V505.69a5.94,5.94,0,0,1,5.92-6h.05a6,6,0,0,1,6,6v42.6A.75.75,0,0,1,514.42,548.58Z" transform="translate(-120.72 -136.46)"/><circle class="cls-20" cx="363.67" cy="412.37" r="17.71"/><circle class="cls-21" cx="301.42" cy="412.28" r="30.03"/><circle class="cls-20" cx="301.13" cy="412.41" r="17.71"/><circle class="cls-6" cx="55.24" cy="245" r="35.82"/><path class="cls-22" d="M176,345.58c-2.68.32-15,.24-25.33,10.55s-10.23,22.64-10.55,25.33H176Z" transform="translate(-120.72 -136.46)"/><path class="cls-23" d="M150.63,406.79c-10.31-10.31-10.23-22.64-10.55-25.33H176Z" transform="translate(-120.72 -136.46)"/><circle class="cls-9" cx="55.16" cy="244.75" r="14.16"/><rect class="cls-6" x="428.59" y="496.07" width="103.66" height="116.8" rx="6.32" ry="6.32"/><rect class="cls-24" x="444.96" y="540.97" width="15.01" height="60.39"/><rect class="cls-25" x="463.6" y="556.89" width="15.01" height="44.47"/><rect class="cls-24" x="482.23" y="513.12" width="15.01" height="88.25"/><rect class="cls-25" x="500.87" y="533.02" width="15.01" height="68.35"/></svg>