<svg id="Layer_1" data-name="Layer 1" xmlns="http://www.w3.org/2000/svg" xmlns:xlink="http://www.w3.org/1999/xlink" viewBox="0 0 905.63 850.29"><defs><style>.cls-1,.cls-12,.cls-15,.cls-18,.cls-21,.cls-3,.cls-7{fill:none;}.cls-13,.cls-17,.cls-2,.cls-6,.cls-9{fill:#fff;}.cls-13,.cls-14,.cls-15,.cls-16,.cls-17,.cls-18,.cls-19,.cls-2,.cls-20,.cls-21,.cls-22,.cls-23,.cls-3,.cls-7,.cls-8,.cls-9{stroke:#003548;}.cls-15,.cls-16,.cls-18,.cls-2,.cls-3{stroke-miterlimit:10;}.cls-13,.cls-14,.cls-18,.cls-19,.cls-2,.cls-20,.cls-21,.cls-7,.cls-8,.cls-9{stroke-width:2px;}.cls-16,.cls-19,.cls-4,.cls-8{fill:#f08e4b;}.cls-23,.cls-5{fill:#893a1d;}.cls-13,.cls-14,.cls-17,.cls-19,.cls-20,.cls-21,.cls-22,.cls-23,.cls-7,.cls-8,.cls-9{stroke-linejoin:round;}.cls-10,.cls-20,.cls-22{fill:#ee7f4f;}.cls-11{clip-path:url(#clip-path);}.cls-12{stroke:#f08e4b;stroke-width:8px;}.cls-12,.cls-13,.cls-14,.cls-15,.cls-17,.cls-19,.cls-20,.cls-21,.cls-22,.cls-23{stroke-linecap:round;}.cls-14{fill:#003548;}.cls-18,.cls-20{fill-rule:evenodd;}</style><clipPath id="clip-path" transform="translate(-61.42 -89.72)"><rect class="cls-1" x="276.77" y="475.2" width="238.48" height="238.48"/></clipPath></defs><title>saas</title><rect class="cls-2" x="751.55" y="1" width="107.3" height="173.39" rx="9.4" ry="9.4"/><line class="cls-3" x1="772.63" y1="106.58" x2="837.77" y2="106.58"/><line class="cls-3" x1="775.87" y1="115.42" x2="834.54" y2="115.42"/><line class="cls-3" x1="781.41" y1="124.26" x2="829" y2="124.26"/><path class="cls-4" d="M873.81,139H859.44a2.27,2.27,0,0,0-1.24.36l-8.65,5.6a2.29,2.29,0,0,0-1,1.92v25.88a2.29,2.29,0,0,0,2.3,2.29h31.65a2.29,2.29,0,0,0,2.3-2.29V146.87a2.29,2.29,0,0,0-1-1.92l-8.65-5.6A2.27,2.27,0,0,0,873.81,139Z" transform="translate(-61.42 -89.72)"/><circle class="cls-5" cx="805.2" cy="42.26" r="9.65"/><rect class="cls-6" x="69.64" y="661.88" width="113.09" height="188.41" rx="6.23" ry="6.23"/><rect class="cls-7" x="72.99" y="658.53" width="113.09" height="188.41" rx="6.23" ry="6.23"/><circle class="cls-8" cx="104.59" cy="801.81" r="12.41"/><circle class="cls-9" cx="104.59" cy="818.37" r="12.41"/><rect class="cls-8" x="199.17" y="767.88" width="37.66" height="26.9" rx="2.68" ry="2.68" transform="translate(937.91 473.62) rotate(90)"/><rect class="cls-10" x="137.24" y="792.92" width="71.6" height="10.76" rx="2.68" ry="2.68" transform="translate(909.92 535.55) rotate(90)"/><rect class="cls-5" x="144.27" y="767.38" width="20.51" height="10.76" rx="2.68" ry="2.68" transform="translate(865.86 528.52) rotate(90)"/><rect class="cls-5" x="144.27" y="792.92" width="20.51" height="10.76" rx="2.68" ry="2.68" transform="translate(891.4 554.07) rotate(90)"/><rect class="cls-5" x="144.27" y="818.47" width="20.51" height="10.76" rx="2.68" ry="2.68" transform="translate(916.95 579.61) rotate(90)"/><rect class="cls-5" x="215.82" y="873.67" width="20.51" height="10.76" rx="2.68" ry="2.68" transform="translate(1043.7 563.26) rotate(90)"/><rect class="cls-5" x="215.82" y="899.22" width="20.51" height="10.76" rx="2.68" ry="2.68" transform="translate(1069.24 588.81) rotate(90)"/><g class="cls-11"><line class="cls-12" x1="336.25" y1="258.84" x2="582.83" y2="505.42"/><line class="cls-12" x1="320.63" y1="274.45" x2="567.21" y2="521.04"/><line class="cls-12" x1="305.01" y1="290.07" x2="551.59" y2="536.66"/><line class="cls-12" x1="289.39" y1="305.69" x2="535.97" y2="552.28"/><line class="cls-12" x1="273.77" y1="321.31" x2="520.35" y2="567.9"/><line class="cls-12" x1="258.15" y1="336.93" x2="504.73" y2="583.52"/><line class="cls-12" x1="242.53" y1="352.55" x2="489.11" y2="599.13"/><line class="cls-12" x1="226.91" y1="368.17" x2="473.49" y2="614.75"/><line class="cls-12" x1="211.29" y1="383.79" x2="457.88" y2="630.37"/><line class="cls-12" x1="195.67" y1="399.41" x2="442.26" y2="645.99"/><line class="cls-12" x1="180.05" y1="415.03" x2="426.64" y2="661.61"/><line class="cls-12" x1="164.43" y1="430.65" x2="411.02" y2="677.23"/><line class="cls-12" x1="148.81" y1="446.27" x2="395.4" y2="692.85"/><line class="cls-12" x1="133.2" y1="461.89" x2="379.78" y2="708.47"/><line class="cls-12" x1="117.58" y1="477.5" x2="364.16" y2="724.09"/><line class="cls-12" x1="101.96" y1="493.12" x2="348.54" y2="739.71"/><line class="cls-12" x1="86.34" y1="508.74" x2="332.92" y2="755.33"/></g><rect class="cls-13" x="699.93" y="510.13" width="204.69" height="187" rx="10.38" ry="10.38"/><rect class="cls-14" x="318.31" y="161.88" width="350.23" height="378.07" rx="13.83" ry="13.83"/><rect class="cls-13" x="305.07" y="148.64" width="350.23" height="378.07" rx="13.83" ry="13.83"/><line class="cls-13" x1="305.07" y1="190.48" x2="655.3" y2="190.48"/><line class="cls-15" x1="625.02" y1="163.51" x2="636.13" y2="174.63"/><line class="cls-15" x1="636.13" y1="163.51" x2="625.02" y2="174.63"/><rect class="cls-3" x="587.92" y="161.96" width="10.8" height="10.8"/><line class="cls-15" x1="535.41" y1="169.07" x2="553.95" y2="169.07"/><rect class="cls-16" x="584.49" y="165.38" width="10.8" height="10.8"/><rect class="cls-13" x="337.03" y="238.26" width="286.31" height="214.97" rx="12.44" ry="12.44"/><rect class="cls-17" x="352.27" y="256.6" width="3.27" height="3.27" rx="1.64" ry="1.64"/><rect class="cls-17" x="367.83" y="256.6" width="3.27" height="3.27" rx="1.64" ry="1.64"/><rect class="cls-17" x="383.4" y="256.6" width="3.27" height="3.27" rx="1.64" ry="1.64"/><rect class="cls-17" x="398.96" y="256.6" width="3.27" height="3.27" rx="1.64" ry="1.64"/><rect class="cls-17" x="414.53" y="256.6" width="3.27" height="3.27" rx="1.64" ry="1.64"/><rect class="cls-17" x="430.1" y="256.6" width="3.27" height="3.27" rx="1.64" ry="1.64"/><rect class="cls-17" x="445.66" y="256.6" width="3.27" height="3.27" rx="1.64" ry="1.64"/><rect class="cls-17" x="461.23" y="256.6" width="3.27" height="3.27" rx="1.64" ry="1.64"/><rect class="cls-17" x="476.8" y="256.6" width="3.27" height="3.27" rx="1.64" ry="1.64"/><rect class="cls-17" x="492.36" y="256.6" width="3.27" height="3.27" rx="1.64" ry="1.64"/><rect class="cls-17" x="507.93" y="256.6" width="3.27" height="3.27" rx="1.64" ry="1.64"/><rect class="cls-17" x="523.49" y="256.6" width="3.27" height="3.27" rx="1.64" ry="1.64"/><rect class="cls-17" x="539.06" y="256.6" width="3.27" height="3.27" rx="1.64" ry="1.64"/><rect class="cls-17" x="554.63" y="256.6" width="3.27" height="3.27" rx="1.64" ry="1.64"/><rect class="cls-17" x="570.19" y="256.6" width="3.27" height="3.27" rx="1.64" ry="1.64"/><rect class="cls-17" x="585.76" y="256.6" width="3.27" height="3.27" rx="1.64" ry="1.64"/><rect class="cls-17" x="601.33" y="256.6" width="3.27" height="3.27" rx="1.64" ry="1.64"/><rect class="cls-17" x="352.27" y="269.1" width="3.27" height="3.27" rx="1.64" ry="1.64"/><rect class="cls-17" x="367.83" y="269.1" width="3.27" height="3.27" rx="1.64" ry="1.64"/><rect class="cls-17" x="383.4" y="269.1" width="3.27" height="3.27" rx="1.64" ry="1.64"/><rect class="cls-17" x="398.96" y="269.1" width="3.27" height="3.27" rx="1.64" ry="1.64"/><rect class="cls-17" x="414.53" y="269.1" width="3.27" height="3.27" rx="1.64" ry="1.64"/><rect class="cls-17" x="430.1" y="269.1" width="3.27" height="3.27" rx="1.64" ry="1.64"/><rect class="cls-17" x="445.66" y="269.1" width="3.27" height="3.27" rx="1.64" ry="1.64"/><rect class="cls-17" x="461.23" y="269.1" width="3.27" height="3.27" rx="1.64" ry="1.64"/><rect class="cls-17" x="476.8" y="269.1" width="3.27" height="3.27" rx="1.64" ry="1.64"/><rect class="cls-17" x="492.36" y="269.1" width="3.27" height="3.27" rx="1.64" ry="1.64"/><rect class="cls-17" x="507.93" y="269.1" width="3.27" height="3.27" rx="1.64" ry="1.64"/><rect class="cls-17" x="523.49" y="269.1" width="3.27" height="3.27" rx="1.64" ry="1.64"/><rect class="cls-17" x="539.06" y="269.1" width="3.27" height="3.27" rx="1.64" ry="1.64"/><rect class="cls-17" x="554.63" y="269.1" width="3.27" height="3.27" rx="1.64" ry="1.64"/><rect class="cls-17" x="570.19" y="269.1" width="3.27" height="3.27" rx="1.64" ry="1.64"/><rect class="cls-17" x="585.76" y="269.1" width="3.27" height="3.27" rx="1.64" ry="1.64"/><rect class="cls-17" x="601.33" y="269.1" width="3.27" height="3.27" rx="1.64" ry="1.64"/><rect class="cls-17" x="352.27" y="281.59" width="3.27" height="3.27" rx="1.64" ry="1.64"/><rect class="cls-17" x="367.83" y="281.59" width="3.27" height="3.27" rx="1.64" ry="1.64"/><rect class="cls-17" x="383.4" y="281.59" width="3.27" height="3.27" rx="1.64" ry="1.64"/><rect class="cls-17" x="398.96" y="281.59" width="3.27" height="3.27" rx="1.64" ry="1.64"/><rect class="cls-17" x="414.53" y="281.59" width="3.27" height="3.27" rx="1.64" ry="1.64"/><rect class="cls-17" x="430.1" y="281.59" width="3.27" height="3.27" rx="1.64" ry="1.64"/><rect class="cls-17" x="445.66" y="281.59" width="3.27" height="3.27" rx="1.64" ry="1.64"/><rect class="cls-17" x="461.23" y="281.59" width="3.27" height="3.27" rx="1.64" ry="1.64"/><rect class="cls-17" x="476.8" y="281.59" width="3.27" height="3.27" rx="1.64" ry="1.64"/><rect class="cls-17" x="492.36" y="281.59" width="3.27" height="3.27" rx="1.64" ry="1.64"/><rect class="cls-17" x="507.93" y="281.59" width="3.27" height="3.27" rx="1.64" ry="1.64"/><rect class="cls-17" x="523.49" y="281.59" width="3.27" height="3.27" rx="1.64" ry="1.64"/><rect class="cls-17" x="539.06" y="281.59" width="3.27" height="3.27" rx="1.64" ry="1.64"/><rect class="cls-17" x="554.63" y="281.59" width="3.27" height="3.27" rx="1.64" ry="1.64"/><rect class="cls-17" x="570.19" y="281.59" width="3.27" height="3.27" rx="1.64" ry="1.64"/><rect class="cls-17" x="585.76" y="281.59" width="3.27" height="3.27" rx="1.64" ry="1.64"/><rect class="cls-17" x="601.33" y="281.59" width="3.27" height="3.27" rx="1.64" ry="1.64"/><rect class="cls-17" x="352.27" y="294.09" width="3.27" height="3.27" rx="1.64" ry="1.64"/><rect class="cls-17" x="367.83" y="294.09" width="3.27" height="3.27" rx="1.64" ry="1.64"/><rect class="cls-17" x="383.4" y="294.09" width="3.27" height="3.27" rx="1.64" ry="1.64"/><rect class="cls-17" x="398.96" y="294.09" width="3.27" height="3.27" rx="1.64" ry="1.64"/><rect class="cls-17" x="414.53" y="294.09" width="3.27" height="3.27" rx="1.64" ry="1.64"/><rect class="cls-17" x="430.1" y="294.09" width="3.27" height="3.27" rx="1.64" ry="1.64"/><rect class="cls-17" x="445.66" y="294.09" width="3.27" height="3.27" rx="1.64" ry="1.64"/><rect class="cls-17" x="461.23" y="294.09" width="3.27" height="3.27" rx="1.64" ry="1.64"/><rect class="cls-17" x="476.8" y="294.09" width="3.27" height="3.27" rx="1.64" ry="1.64"/><rect class="cls-17" x="492.36" y="294.09" width="3.27" height="3.27" rx="1.64" ry="1.64"/><rect class="cls-17" x="507.93" y="294.09" width="3.27" height="3.27" rx="1.64" ry="1.64"/><rect class="cls-17" x="523.49" y="294.09" width="3.27" height="3.27" rx="1.64" ry="1.64"/><rect class="cls-17" x="539.06" y="294.09" width="3.27" height="3.27" rx="1.64" ry="1.64"/><rect class="cls-17" x="554.63" y="294.09" width="3.27" height="3.27" rx="1.64" ry="1.64"/><rect class="cls-17" x="570.19" y="294.09" width="3.27" height="3.27" rx="1.64" ry="1.64"/><rect class="cls-17" x="585.76" y="294.09" width="3.27" height="3.27" rx="1.64" ry="1.64"/><rect class="cls-17" x="601.33" y="294.09" width="3.27" height="3.27" rx="1.64" ry="1.64"/><rect class="cls-17" x="352.27" y="306.58" width="3.27" height="3.27" rx="1.64" ry="1.64"/><rect class="cls-17" x="367.83" y="306.58" width="3.27" height="3.27" rx="1.64" ry="1.64"/><rect class="cls-17" x="383.4" y="306.58" width="3.27" height="3.27" rx="1.64" ry="1.64"/><rect class="cls-17" x="398.96" y="306.58" width="3.27" height="3.27" rx="1.64" ry="1.64"/><rect class="cls-17" x="414.53" y="306.58" width="3.27" height="3.27" rx="1.64" ry="1.64"/><rect class="cls-17" x="430.1" y="306.58" width="3.27" height="3.27" rx="1.64" ry="1.64"/><rect class="cls-17" x="445.66" y="306.58" width="3.27" height="3.27" rx="1.64" ry="1.64"/><rect class="cls-17" x="461.23" y="306.58" width="3.27" height="3.27" rx="1.64" ry="1.64"/><rect class="cls-4" x="471.23" y="301.02" width="14.41" height="14.41" rx="7.21" ry="7.21"/><rect class="cls-4" x="502.36" y="363.49" width="14.41" height="14.41" rx="7.21" ry="7.21"/><rect class="cls-4" x="362.26" y="388.48" width="14.41" height="14.41" rx="7.21" ry="7.21"/><rect class="cls-4" x="424.53" y="400.98" width="14.41" height="14.41" rx="7.21" ry="7.21"/><rect class="cls-17" x="492.36" y="306.58" width="3.27" height="3.27" rx="1.64" ry="1.64"/><rect class="cls-17" x="507.93" y="306.58" width="3.27" height="3.27" rx="1.64" ry="1.64"/><rect class="cls-17" x="523.49" y="306.58" width="3.27" height="3.27" rx="1.64" ry="1.64"/><rect class="cls-17" x="539.06" y="306.58" width="3.27" height="3.27" rx="1.64" ry="1.64"/><rect class="cls-17" x="554.63" y="306.58" width="3.27" height="3.27" rx="1.64" ry="1.64"/><rect class="cls-17" x="570.19" y="306.58" width="3.27" height="3.27" rx="1.64" ry="1.64"/><rect class="cls-17" x="585.76" y="306.58" width="3.27" height="3.27" rx="1.64" ry="1.64"/><rect class="cls-17" x="601.33" y="306.58" width="3.27" height="3.27" rx="1.64" ry="1.64"/><rect class="cls-17" x="352.27" y="319.08" width="3.27" height="3.27" rx="1.64" ry="1.64"/><rect class="cls-17" x="367.83" y="319.08" width="3.27" height="3.27" rx="1.64" ry="1.64"/><rect class="cls-17" x="383.4" y="319.08" width="3.27" height="3.27" rx="1.64" ry="1.64"/><rect class="cls-17" x="398.96" y="319.08" width="3.27" height="3.27" rx="1.64" ry="1.64"/><rect class="cls-17" x="414.53" y="319.08" width="3.27" height="3.27" rx="1.64" ry="1.64"/><rect class="cls-17" x="430.1" y="319.08" width="3.27" height="3.27" rx="1.64" ry="1.64"/><rect class="cls-17" x="445.66" y="319.08" width="3.27" height="3.27" rx="1.64" ry="1.64"/><rect class="cls-17" x="461.23" y="319.08" width="3.27" height="3.27" rx="1.64" ry="1.64"/><rect class="cls-17" x="476.8" y="319.08" width="3.27" height="3.27" rx="1.64" ry="1.64"/><rect class="cls-17" x="492.36" y="319.08" width="3.27" height="3.27" rx="1.64" ry="1.64"/><rect class="cls-17" x="507.93" y="319.08" width="3.27" height="3.27" rx="1.64" ry="1.64"/><rect class="cls-17" x="523.49" y="319.08" width="3.27" height="3.27" rx="1.64" ry="1.64"/><rect class="cls-17" x="539.06" y="319.08" width="3.27" height="3.27" rx="1.64" ry="1.64"/><rect class="cls-17" x="554.63" y="319.08" width="3.27" height="3.27" rx="1.64" ry="1.64"/><rect class="cls-17" x="570.19" y="319.08" width="3.27" height="3.27" rx="1.64" ry="1.64"/><rect class="cls-17" x="585.76" y="319.08" width="3.27" height="3.27" rx="1.64" ry="1.64"/><rect class="cls-17" x="601.33" y="319.08" width="3.27" height="3.27" rx="1.64" ry="1.64"/><rect class="cls-17" x="352.27" y="331.57" width="3.27" height="3.27" rx="1.64" ry="1.64"/><rect class="cls-17" x="367.83" y="331.57" width="3.27" height="3.27" rx="1.64" ry="1.64"/><rect class="cls-17" x="383.4" y="331.57" width="3.27" height="3.27" rx="1.64" ry="1.64"/><rect class="cls-17" x="398.96" y="331.57" width="3.27" height="3.27" rx="1.64" ry="1.64"/><rect class="cls-17" x="414.53" y="331.57" width="3.27" height="3.27" rx="1.64" ry="1.64"/><rect class="cls-17" x="430.1" y="331.57" width="3.27" height="3.27" rx="1.64" ry="1.64"/><rect class="cls-17" x="445.66" y="331.57" width="3.27" height="3.27" rx="1.64" ry="1.64"/><rect class="cls-17" x="461.23" y="331.57" width="3.27" height="3.27" rx="1.64" ry="1.64"/><rect class="cls-17" x="476.8" y="331.57" width="3.27" height="3.27" rx="1.64" ry="1.64"/><rect class="cls-17" x="492.36" y="331.57" width="3.27" height="3.27" rx="1.64" ry="1.64"/><rect class="cls-17" x="507.93" y="331.57" width="3.27" height="3.27" rx="1.64" ry="1.64"/><rect class="cls-17" x="523.49" y="331.57" width="3.27" height="3.27" rx="1.64" ry="1.64"/><rect class="cls-17" x="539.06" y="331.57" width="3.27" height="3.27" rx="1.64" ry="1.64"/><rect class="cls-17" x="554.63" y="331.57" width="3.27" height="3.27" rx="1.64" ry="1.64"/><rect class="cls-17" x="570.19" y="331.57" width="3.27" height="3.27" rx="1.64" ry="1.64"/><rect class="cls-17" x="585.76" y="331.57" width="3.27" height="3.27" rx="1.64" ry="1.64"/><rect class="cls-17" x="601.33" y="331.57" width="3.27" height="3.27" rx="1.64" ry="1.64"/><rect class="cls-17" x="352.27" y="344.07" width="3.27" height="3.27" rx="1.64" ry="1.64"/><rect class="cls-17" x="367.83" y="344.07" width="3.27" height="3.27" rx="1.64" ry="1.64"/><rect class="cls-17" x="383.4" y="344.07" width="3.27" height="3.27" rx="1.64" ry="1.64"/><rect class="cls-17" x="398.96" y="344.07" width="3.27" height="3.27" rx="1.64" ry="1.64"/><rect class="cls-17" x="414.53" y="344.07" width="3.27" height="3.27" rx="1.64" ry="1.64"/><rect class="cls-17" x="430.1" y="344.07" width="3.27" height="3.27" rx="1.64" ry="1.64"/><rect class="cls-17" x="445.66" y="344.07" width="3.27" height="3.27" rx="1.64" ry="1.64"/><rect class="cls-17" x="461.23" y="344.07" width="3.27" height="3.27" rx="1.64" ry="1.64"/><rect class="cls-17" x="476.8" y="344.07" width="3.27" height="3.27" rx="1.64" ry="1.64"/><rect class="cls-17" x="492.36" y="344.07" width="3.27" height="3.27" rx="1.64" ry="1.64"/><rect class="cls-17" x="507.93" y="344.07" width="3.27" height="3.27" rx="1.64" ry="1.64"/><rect class="cls-17" x="523.49" y="344.07" width="3.27" height="3.27" rx="1.64" ry="1.64"/><rect class="cls-17" x="539.06" y="344.07" width="3.27" height="3.27" rx="1.64" ry="1.64"/><rect class="cls-17" x="554.63" y="344.07" width="3.27" height="3.27" rx="1.64" ry="1.64"/><rect class="cls-17" x="570.19" y="344.07" width="3.27" height="3.27" rx="1.64" ry="1.64"/><rect class="cls-17" x="585.76" y="344.07" width="3.27" height="3.27" rx="1.64" ry="1.64"/><rect class="cls-17" x="601.33" y="344.07" width="3.27" height="3.27" rx="1.64" ry="1.64"/><rect class="cls-17" x="352.27" y="356.57" width="3.27" height="3.27" rx="1.64" ry="1.64"/><rect class="cls-17" x="367.83" y="356.57" width="3.27" height="3.27" rx="1.64" ry="1.64"/><rect class="cls-17" x="383.4" y="356.57" width="3.27" height="3.27" rx="1.64" ry="1.64"/><rect class="cls-17" x="398.96" y="356.57" width="3.27" height="3.27" rx="1.64" ry="1.64"/><rect class="cls-17" x="414.53" y="356.57" width="3.27" height="3.27" rx="1.64" ry="1.64"/><rect class="cls-17" x="430.1" y="356.57" width="3.27" height="3.27" rx="1.64" ry="1.64"/><rect class="cls-17" x="445.66" y="356.57" width="3.27" height="3.27" rx="1.64" ry="1.64"/><rect class="cls-17" x="461.23" y="356.57" width="3.27" height="3.27" rx="1.64" ry="1.64"/><rect class="cls-17" x="476.8" y="356.57" width="3.27" height="3.27" rx="1.64" ry="1.64"/><rect class="cls-17" x="492.36" y="356.57" width="3.27" height="3.27" rx="1.64" ry="1.64"/><rect class="cls-17" x="507.93" y="356.57" width="3.27" height="3.27" rx="1.64" ry="1.64"/><rect class="cls-17" x="523.49" y="356.57" width="3.27" height="3.27" rx="1.64" ry="1.64"/><rect class="cls-17" x="539.06" y="356.57" width="3.27" height="3.27" rx="1.64" ry="1.64"/><rect class="cls-17" x="554.63" y="356.57" width="3.27" height="3.27" rx="1.64" ry="1.64"/><rect class="cls-17" x="570.19" y="356.57" width="3.27" height="3.27" rx="1.64" ry="1.64"/><rect class="cls-17" x="585.76" y="356.57" width="3.27" height="3.27" rx="1.64" ry="1.64"/><rect class="cls-17" x="601.33" y="356.57" width="3.27" height="3.27" rx="1.64" ry="1.64"/><rect class="cls-17" x="352.27" y="369.06" width="3.27" height="3.27" rx="1.64" ry="1.64"/><rect class="cls-17" x="367.83" y="369.06" width="3.27" height="3.27" rx="1.64" ry="1.64"/><rect class="cls-17" x="383.4" y="369.06" width="3.27" height="3.27" rx="1.64" ry="1.64"/><rect class="cls-17" x="398.96" y="369.06" width="3.27" height="3.27" rx="1.64" ry="1.64"/><rect class="cls-17" x="414.53" y="369.06" width="3.27" height="3.27" rx="1.64" ry="1.64"/><rect class="cls-17" x="430.1" y="369.06" width="3.27" height="3.27" rx="1.64" ry="1.64"/><rect class="cls-17" x="445.66" y="369.06" width="3.27" height="3.27" rx="1.64" ry="1.64"/><rect class="cls-17" x="461.23" y="369.06" width="3.27" height="3.27" rx="1.64" ry="1.64"/><rect class="cls-17" x="476.8" y="369.06" width="3.27" height="3.27" rx="1.64" ry="1.64"/><rect class="cls-17" x="492.36" y="369.06" width="3.27" height="3.27" rx="1.64" ry="1.64"/><rect class="cls-17" x="507.93" y="369.06" width="3.27" height="3.27" rx="1.64" ry="1.64"/><rect class="cls-17" x="523.49" y="369.06" width="3.27" height="3.27" rx="1.64" ry="1.64"/><rect class="cls-17" x="539.06" y="369.06" width="3.27" height="3.27" rx="1.64" ry="1.64"/><rect class="cls-17" x="554.63" y="369.06" width="3.27" height="3.27" rx="1.64" ry="1.64"/><rect class="cls-17" x="570.19" y="369.06" width="3.27" height="3.27" rx="1.64" ry="1.64"/><rect class="cls-17" x="585.76" y="369.06" width="3.27" height="3.27" rx="1.64" ry="1.64"/><rect class="cls-17" x="601.33" y="369.06" width="3.27" height="3.27" rx="1.64" ry="1.64"/><rect class="cls-17" x="352.27" y="381.56" width="3.27" height="3.27" rx="1.64" ry="1.64"/><rect class="cls-17" x="367.83" y="381.56" width="3.27" height="3.27" rx="1.64" ry="1.64"/><rect class="cls-17" x="383.4" y="381.56" width="3.27" height="3.27" rx="1.64" ry="1.64"/><rect class="cls-17" x="398.96" y="381.56" width="3.27" height="3.27" rx="1.64" ry="1.64"/><rect class="cls-17" x="414.53" y="381.56" width="3.27" height="3.27" rx="1.64" ry="1.64"/><rect class="cls-17" x="430.1" y="381.56" width="3.27" height="3.27" rx="1.64" ry="1.64"/><rect class="cls-17" x="445.66" y="381.56" width="3.27" height="3.27" rx="1.64" ry="1.64"/><rect class="cls-17" x="461.23" y="381.56" width="3.27" height="3.27" rx="1.64" ry="1.64"/><rect class="cls-17" x="476.8" y="381.56" width="3.27" height="3.27" rx="1.64" ry="1.64"/><rect class="cls-17" x="492.36" y="381.56" width="3.27" height="3.27" rx="1.64" ry="1.64"/><rect class="cls-17" x="507.93" y="381.56" width="3.27" height="3.27" rx="1.64" ry="1.64"/><rect class="cls-17" x="523.49" y="381.56" width="3.27" height="3.27" rx="1.64" ry="1.64"/><rect class="cls-17" x="539.06" y="381.56" width="3.27" height="3.27" rx="1.64" ry="1.64"/><rect class="cls-17" x="554.63" y="381.56" width="3.27" height="3.27" rx="1.64" ry="1.64"/><rect class="cls-17" x="570.19" y="381.56" width="3.27" height="3.27" rx="1.64" ry="1.64"/><rect class="cls-17" x="585.76" y="381.56" width="3.27" height="3.27" rx="1.64" ry="1.64"/><rect class="cls-17" x="601.33" y="381.56" width="3.27" height="3.27" rx="1.64" ry="1.64"/><rect class="cls-17" x="352.27" y="394.05" width="3.27" height="3.27" rx="1.64" ry="1.64"/><rect class="cls-17" x="367.83" y="394.05" width="3.27" height="3.27" rx="1.64" ry="1.64"/><rect class="cls-17" x="383.4" y="394.05" width="3.27" height="3.27" rx="1.64" ry="1.64"/><rect class="cls-17" x="398.96" y="394.05" width="3.27" height="3.27" rx="1.64" ry="1.64"/><rect class="cls-17" x="414.53" y="394.05" width="3.27" height="3.27" rx="1.64" ry="1.64"/><rect class="cls-17" x="430.1" y="394.05" width="3.27" height="3.27" rx="1.64" ry="1.64"/><rect class="cls-17" x="445.66" y="394.05" width="3.27" height="3.27" rx="1.64" ry="1.64"/><rect class="cls-17" x="461.23" y="394.05" width="3.27" height="3.27" rx="1.64" ry="1.64"/><rect class="cls-17" x="476.8" y="394.05" width="3.27" height="3.27" rx="1.64" ry="1.64"/><rect class="cls-17" x="492.36" y="394.05" width="3.27" height="3.27" rx="1.64" ry="1.64"/><rect class="cls-17" x="507.93" y="394.05" width="3.27" height="3.27" rx="1.64" ry="1.64"/><rect class="cls-17" x="523.49" y="394.05" width="3.27" height="3.27" rx="1.64" ry="1.64"/><rect class="cls-17" x="539.06" y="394.05" width="3.27" height="3.27" rx="1.64" ry="1.64"/><rect class="cls-17" x="554.63" y="394.05" width="3.27" height="3.27" rx="1.64" ry="1.64"/><rect class="cls-17" x="570.19" y="394.05" width="3.27" height="3.27" rx="1.64" ry="1.64"/><rect class="cls-17" x="585.76" y="394.05" width="3.27" height="3.27" rx="1.64" ry="1.64"/><rect class="cls-17" x="601.33" y="394.05" width="3.27" height="3.27" rx="1.64" ry="1.64"/><rect class="cls-17" x="352.27" y="406.55" width="3.27" height="3.27" rx="1.64" ry="1.64"/><rect class="cls-17" x="367.83" y="406.55" width="3.27" height="3.27" rx="1.64" ry="1.64"/><rect class="cls-17" x="383.4" y="406.55" width="3.27" height="3.27" rx="1.64" ry="1.64"/><rect class="cls-17" x="398.96" y="406.55" width="3.27" height="3.27" rx="1.64" ry="1.64"/><rect class="cls-17" x="414.53" y="406.55" width="3.27" height="3.27" rx="1.64" ry="1.64"/><rect class="cls-17" x="430.1" y="406.55" width="3.27" height="3.27" rx="1.64" ry="1.64"/><rect class="cls-17" x="445.66" y="406.55" width="3.27" height="3.27" rx="1.64" ry="1.64"/><rect class="cls-17" x="461.23" y="406.55" width="3.27" height="3.27" rx="1.64" ry="1.64"/><rect class="cls-17" x="476.8" y="406.55" width="3.27" height="3.27" rx="1.64" ry="1.64"/><rect class="cls-17" x="492.36" y="406.55" width="3.27" height="3.27" rx="1.64" ry="1.64"/><rect class="cls-17" x="507.93" y="406.55" width="3.27" height="3.27" rx="1.64" ry="1.64"/><rect class="cls-17" x="523.49" y="406.55" width="3.27" height="3.27" rx="1.64" ry="1.64"/><rect class="cls-17" x="539.06" y="406.55" width="3.27" height="3.27" rx="1.64" ry="1.64"/><rect class="cls-17" x="554.63" y="406.55" width="3.27" height="3.27" rx="1.64" ry="1.64"/><rect class="cls-17" x="570.19" y="406.55" width="3.27" height="3.27" rx="1.64" ry="1.64"/><rect class="cls-17" x="585.76" y="406.55" width="3.27" height="3.27" rx="1.64" ry="1.64"/><rect class="cls-17" x="601.33" y="406.55" width="3.27" height="3.27" rx="1.64" ry="1.64"/><rect class="cls-17" x="352.27" y="419.04" width="3.27" height="3.27" rx="1.64" ry="1.64"/><rect class="cls-17" x="367.83" y="419.04" width="3.27" height="3.27" rx="1.64" ry="1.64"/><rect class="cls-17" x="383.4" y="419.04" width="3.27" height="3.27" rx="1.64" ry="1.64"/><rect class="cls-17" x="398.96" y="419.04" width="3.27" height="3.27" rx="1.64" ry="1.64"/><rect class="cls-17" x="414.53" y="419.04" width="3.27" height="3.27" rx="1.64" ry="1.64"/><rect class="cls-17" x="430.1" y="419.04" width="3.27" height="3.27" rx="1.64" ry="1.64"/><rect class="cls-17" x="445.66" y="419.04" width="3.27" height="3.27" rx="1.64" ry="1.64"/><rect class="cls-17" x="461.23" y="419.04" width="3.27" height="3.27" rx="1.64" ry="1.64"/><rect class="cls-17" x="476.8" y="419.04" width="3.27" height="3.27" rx="1.64" ry="1.64"/><rect class="cls-17" x="492.36" y="419.04" width="3.27" height="3.27" rx="1.64" ry="1.64"/><rect class="cls-17" x="507.93" y="419.04" width="3.27" height="3.27" rx="1.64" ry="1.64"/><rect class="cls-17" x="523.49" y="419.04" width="3.27" height="3.27" rx="1.64" ry="1.64"/><rect class="cls-17" x="539.06" y="419.04" width="3.27" height="3.27" rx="1.64" ry="1.64"/><rect class="cls-17" x="554.63" y="419.04" width="3.27" height="3.27" rx="1.64" ry="1.64"/><rect class="cls-17" x="570.19" y="419.04" width="3.27" height="3.27" rx="1.64" ry="1.64"/><rect class="cls-17" x="585.76" y="419.04" width="3.27" height="3.27" rx="1.64" ry="1.64"/><rect class="cls-17" x="601.33" y="419.04" width="3.27" height="3.27" rx="1.64" ry="1.64"/><rect class="cls-17" x="352.27" y="431.54" width="3.27" height="3.27" rx="1.64" ry="1.64"/><rect class="cls-17" x="367.83" y="431.54" width="3.27" height="3.27" rx="1.64" ry="1.64"/><rect class="cls-17" x="383.4" y="431.54" width="3.27" height="3.27" rx="1.64" ry="1.64"/><rect class="cls-17" x="398.96" y="431.54" width="3.27" height="3.27" rx="1.64" ry="1.64"/><rect class="cls-17" x="414.53" y="431.54" width="3.27" height="3.27" rx="1.64" ry="1.64"/><rect class="cls-17" x="430.1" y="431.54" width="3.27" height="3.27" rx="1.64" ry="1.64"/><rect class="cls-17" x="445.66" y="431.54" width="3.27" height="3.27" rx="1.64" ry="1.64"/><rect class="cls-17" x="461.23" y="431.54" width="3.27" height="3.27" rx="1.64" ry="1.64"/><rect class="cls-17" x="476.8" y="431.54" width="3.27" height="3.27" rx="1.64" ry="1.64"/><rect class="cls-17" x="492.36" y="431.54" width="3.27" height="3.27" rx="1.64" ry="1.64"/><rect class="cls-17" x="507.93" y="431.54" width="3.27" height="3.27" rx="1.64" ry="1.64"/><rect class="cls-17" x="523.49" y="431.54" width="3.27" height="3.27" rx="1.64" ry="1.64"/><rect class="cls-17" x="539.06" y="431.54" width="3.27" height="3.27" rx="1.64" ry="1.64"/><rect class="cls-17" x="554.63" y="431.54" width="3.27" height="3.27" rx="1.64" ry="1.64"/><rect class="cls-17" x="570.19" y="431.54" width="3.27" height="3.27" rx="1.64" ry="1.64"/><rect class="cls-17" x="585.76" y="431.54" width="3.27" height="3.27" rx="1.64" ry="1.64"/><rect class="cls-17" x="601.33" y="431.54" width="3.27" height="3.27" rx="1.64" ry="1.64"/><rect class="cls-17" x="476.8" y="306.58" width="3.27" height="3.27" rx="1.64" ry="1.64"/><polyline class="cls-7" points="485.64 308.22 805.2 308.22 805.2 172.76"/><polyline class="cls-7" points="516.77 370.7 802.28 370.7 802.28 510.13"/><polyline class="cls-18" points="431.74 409.82 431.74 674.64 196.33 674.64"/><polyline class="cls-7" points="362.26 395.69 96.88 395.69 96.88 224.63"/><rect class="cls-6" x="4.35" y="133.93" width="188.41" height="113.09" rx="6.23" ry="6.23"/><rect class="cls-7" x="1" y="130.58" width="188.41" height="113.09" rx="6.23" ry="6.23"/><circle class="cls-8" cx="144.28" cy="212.07" r="12.41"/><circle class="cls-9" cx="160.84" cy="212.07" r="12.41"/><rect class="cls-8" x="15.26" y="146.63" width="37.66" height="26.9" rx="2.68" ry="2.68"/><rect class="cls-10" x="15.26" y="199.66" width="71.6" height="10.76" rx="2.68" ry="2.68"/><rect class="cls-5" x="15.26" y="218.18" width="20.51" height="10.76" rx="2.68" ry="2.68"/><rect class="cls-5" x="40.8" y="218.18" width="20.51" height="10.76" rx="2.68" ry="2.68"/><rect class="cls-5" x="66.35" y="218.18" width="20.51" height="10.76" rx="2.68" ry="2.68"/><rect class="cls-5" x="121.55" y="146.63" width="20.51" height="10.76" rx="2.68" ry="2.68"/><rect class="cls-5" x="147.09" y="146.63" width="20.51" height="10.76" rx="2.68" ry="2.68"/><rect class="cls-13" x="57.58" y="555.53" width="143.53" height="207.79" rx="9.87" ry="9.87"/><rect class="cls-19" x="68.58" y="572.49" width="121.19" height="57.4"/><rect class="cls-19" x="68.58" y="648.14" width="25.33" height="25.33"/><rect class="cls-19" x="100.54" y="648.14" width="25.33" height="25.33"/><rect class="cls-19" x="132.49" y="648.14" width="25.33" height="25.33"/><rect class="cls-19" x="164.45" y="648.14" width="25.33" height="25.33"/><rect class="cls-19" x="68.58" y="682.25" width="25.33" height="25.33"/><rect class="cls-19" x="100.54" y="682.25" width="25.33" height="25.33"/><rect class="cls-19" x="132.49" y="682.25" width="25.33" height="25.33"/><rect class="cls-19" x="164.45" y="682.25" width="25.33" height="25.33"/><rect class="cls-19" x="68.58" y="716.36" width="25.33" height="25.33"/><rect class="cls-19" x="100.54" y="716.36" width="25.33" height="25.33"/><rect class="cls-19" x="132.49" y="716.36" width="25.33" height="25.33"/><rect class="cls-19" x="164.45" y="716.36" width="25.33" height="25.33"/><polygon class="cls-20" points="70.68 507.87 85.08 522.28 99.93 507.44 99.93 507.87 114.33 522.28 129.18 507.44 129.18 507.87 143.59 522.28 158.43 507.44 158.43 507.87 172.84 522.28 187.68 507.44 187.68 555.53 70.68 555.53 70.68 507.87"/><line class="cls-21" x1="164.12" y1="537.74" x2="93.91" y2="537.74"/><line class="cls-21" x1="83.29" y1="586.97" x2="83.29" y2="615.4"/><rect class="cls-13" x="68.6" y="763.32" width="120.83" height="13.9"/><rect class="cls-22" x="730.25" y="587.92" width="20.74" height="83.45"/><rect class="cls-23" x="756" y="609.92" width="20.74" height="61.45"/><rect class="cls-17" x="781.76" y="549.43" width="20.74" height="121.94"/><rect class="cls-23" x="807.51" y="576.93" width="20.74" height="94.44"/><rect class="cls-22" x="833.66" y="587.92" width="20.74" height="83.45"/><rect class="cls-17" x="859.41" y="609.92" width="20.74" height="61.45"/></svg>